HIERARCHY
ROOT Hips
{
	OFFSET -3.958830 18.904000 13.208200
	CHANNELS 6 Xposition Yposition Zposition Zrotation Yrotation Xrotation 
	JOINT LHipJoint
	{
		OFFSET 0.000000 0.000000 0.000000
		CHANNELS 3 Zrotation Yrotation Xrotation
		JOINT LeftUpLeg
		{
			OFFSET 1.800000 -1.400000 0.085000
			CHANNELS 3 Zrotation Yrotation Xrotation
			JOINT LeftLeg
			{
				OFFSET 2.215000 -6.000000 0.000000
				CHANNELS 3 Zrotation Yrotation Xrotation
				JOINT LeftFoot
				{
					OFFSET 2.500000 -6.900000 0.000000
					CHANNELS 3 Zrotation Yrotation Xrotation
					JOINT LeftToeBase
					{
						OFFSET 0.200000 -0.500000 1.950000
						CHANNELS 3 Zrotation Yrotation Xrotation
						End Site
						{
							OFFSET 0.000000 0.000000 0.000000
						}
					}
				}
			}
		}
	}
	JOINT RHipJoint
	{
		OFFSET 0.000000 0.000000 0.000000
		CHANNELS 3 Zrotation Yrotation Xrotation
		JOINT RightUpLeg
		{
			OFFSET -1.800000 -1.400000 0.085000
			CHANNELS 3 Zrotation Yrotation Xrotation
			JOINT RightLeg
			{
				OFFSET -2.215000 -6.000000 0.000000
				CHANNELS 3 Zrotation Yrotation Xrotation
				JOINT RightFoot
				{
					OFFSET -2.500000 -6.900000 0.000000
					CHANNELS 3 Zrotation Yrotation Xrotation
					JOINT RightToeBase
					{
						OFFSET -0.200000 -0.500000 1.950000
						CHANNELS 3 Zrotation Yrotation Xrotation
						End Site
						{
							OFFSET 0.000000 0.000000 0.000000
						}
					}
				}
			}
		}
	}
	JOINT LowerBack
	{
		OFFSET 0.000000 0.000000 0.000000
		CHANNELS 3 Zrotation Yrotation Xrotation
		JOINT Spine
		{
			OFFSET -0.087000 1.940000 -0.288900
			CHANNELS 3 Zrotation Yrotation Xrotation
			JOINT Spine1
			{
				OFFSET 0.000000 1.950000 0.060000
				CHANNELS 3 Zrotation Yrotation Xrotation
				JOINT Neck
				{
					OFFSET 0.000000 0.000000 0.000000
					CHANNELS 3 Zrotation Yrotation Xrotation
					JOINT Neck1
					{
						OFFSET 0.000000 1.600000 0.340000
						CHANNELS 3 Zrotation Yrotation Xrotation
						JOINT Head
						{
							OFFSET 0.000000 1.667000 -0.240000
							CHANNELS 3 Zrotation Yrotation Xrotation
							End Site
							{
								OFFSET 0.000000 0.000000 0.000000
							}
						}
					}
				}
				JOINT LeftShoulder
				{
					OFFSET 0.000000 0.000000 0.000000
					CHANNELS 3 Zrotation Yrotation Xrotation
					JOINT LeftArm
					{
						OFFSET 2.700000 1.550000 -0.730000
						CHANNELS 3 Zrotation Yrotation Xrotation
						JOINT LeftForeArm
						{
							OFFSET 5.450000 0.000000 0.000000
							CHANNELS 3 Zrotation Yrotation Xrotation
							JOINT LeftHand
							{
								OFFSET 3.450000 0.000000 0.000000
								CHANNELS 3 Zrotation Yrotation Xrotation
								JOINT LeftHandIndex1
								{
									OFFSET 0.750000 0.000000 0.000000
									CHANNELS 3 Zrotation Yrotation Xrotation
									End Site
									{
										OFFSET 0.000000 0.000000 0.000000
									}
								}
							}
						}
					}
				}
				JOINT RightShoulder
				{
					OFFSET 0.000000 0.000000 0.000000
					CHANNELS 3 Zrotation Yrotation Xrotation
					JOINT RightArm
					{
						OFFSET -2.700000 1.550000 -0.730000
						CHANNELS 3 Zrotation Yrotation Xrotation
						JOINT RightForeArm
						{
							OFFSET -5.450000 0.000000 0.000000
							CHANNELS 3 Zrotation Yrotation Xrotation
							JOINT RightHand
							{
								OFFSET -3.450000 0.000000 0.000000
								CHANNELS 3 Zrotation Yrotation Xrotation
								JOINT RightHandIndex1
								{
									OFFSET -0.750000 0.000000 0.000000
									CHANNELS 3 Zrotation Yrotation Xrotation
									End Site
									{
										OFFSET 0.000000 0.000000 0.000000
									}
								}
							}
						}
					}
				}
			}
		}
	}
}
MOTION
Frames: 9
Frame Time: 0.016667
0.293620 16.918740 -1.461040 -0.924341 8.409440 4.234832 -15.192552 12.938138 2.480816 -0.203427 -2.890165 -13.433399 -1.188040 7.457126 34.556602 -0.161545 6.846665 2.608721 -0.340580 -0.673700 -0.495490 18.391008 -10.768348 2.981267 -3.418304 4.212416 -29.475210 8.138840 -8.269086 31.120084 0.161592 -5.214049 2.777402 -0.106800 1.181310 0.173170 -3.839950 -0.764097 -6.509604 5.835751 -0.329298 1.965741 -2.324896 -0.471099 5.759231 1.882052 1.946639 -4.122798 2.673088 -4.780783 25.477148 -6.162190 -2.913190 11.242130 -14.695238 4.324285 -0.040258 -58.338873 -10.092926 -1.650609 -17.997385 -38.636112 3.997051 -4.560047 3.139581 -0.142740 0.872590 -0.875540 0.229440 11.428757 -5.958290 -0.533451 60.095406 5.628707 -3.532762 4.856074 12.447902 -1.246909 2.060128 -1.480482 -0.532120 0.387360 0.486600 -0.023850 
0.297270 16.862470 -1.483110 -1.123434 8.545801 4.175227 -15.195292 12.885974 2.442961 -0.151800 -2.941213 -13.503249 -0.891429 7.457863 35.107263 -0.134806 6.890018 2.600189 -0.358660 -0.681470 -0.518140 18.409298 -10.617126 3.182506 -3.705351 4.986740 -32.128295 8.121684 -9.070291 35.107605 0.059664 -5.769606 2.591236 -0.117580 1.184100 0.135350 -3.858627 -0.819290 -6.647542 6.070769 -0.438835 2.732869 -2.455782 -0.470347 4.913746 1.818815 1.697256 -4.017503 2.220010 -4.646251 25.719913 -5.656340 -3.143900 11.399940 -16.298145 4.236081 -0.255453 -57.126068 -9.937382 -1.797230 -18.236486 -40.855806 4.539650 -4.526343 3.114276 -0.131950 0.854230 -0.876850 0.235200 13.079772 -5.683033 -0.521731 58.308844 4.937426 -3.835052 4.473293 12.601571 -1.231772 2.073128 -1.440282 -0.546810 0.414670 0.484850 -0.016520 
0.308940 16.744830 -1.524750 -1.474404 9.197447 4.107995 -15.205722 12.733887 2.347970 0.022756 -3.111639 -13.696938 -0.488815 7.469126 35.993368 -0.131745 6.967013 2.560155 -0.348560 -0.671390 -0.500580 18.455548 -10.250164 3.639338 -5.004844 6.372123 -37.352276 8.783711 -11.118430 42.478467 -0.213633 -7.051750 2.140738 -0.116980 1.148520 0.090600 -3.900715 -0.946841 -6.944461 6.560580 -0.888783 4.130451 -3.039055 -0.701654 3.658999 1.932254 1.348382 -3.850720 1.592590 -4.538563 26.063867 -5.141490 -3.381770 10.826250 -18.620951 4.190443 -0.611860 -55.230661 -9.613224 -2.056780 -19.185805 -45.104277 5.741136 -4.457490 3.098416 -0.082410 0.805850 -0.856310 0.228860 15.060126 -5.479747 -0.492917 56.023870 3.961371 -4.252340 4.072858 13.030882 -1.185814 2.077414 -1.386517 -0.566190 0.441580 0.474930 -0.032890 
0.313300 16.622300 -1.582520 -1.221311 10.843287 3.376421 -15.273743 12.585219 2.324792 0.092221 -3.686403 -13.947301 -0.149979 7.651083 38.196202 -0.058653 7.210727 2.414208 -0.278810 -0.615390 -0.409860 18.444317 -9.709469 4.238189 -8.729365 6.975028 -43.188155 11.596550 -15.166854 50.289386 -0.703215 -8.853867 1.510496 -0.134140 0.995000 0.063800 -3.773141 -1.395693 -7.510014 5.595753 -1.698777 7.156259 -3.295012 -1.211257 2.120210 2.070291 1.030879 -4.362102 0.559541 -4.377000 28.719705 -3.951570 -3.816070 8.774430 -20.476603 3.001372 -0.471538 -53.051991 -9.164643 -2.759584 -20.468108 -50.606633 7.259654 -4.273013 3.102167 0.064140 0.652830 -0.725830 0.209730 16.636646 -4.024747 0.213102 53.922473 2.577580 -4.999901 3.943404 13.846242 -0.961952 2.105925 -1.290474 -0.536780 0.432440 0.431860 -0.070610 
0.301380 16.516210 -1.637940 -1.437523 12.504480 1.472284 -15.342951 12.539316 2.331969 1.240508 -4.297491 -13.554550 -0.413263 8.290248 40.890980 0.034941 7.605271 2.178924 -0.158830 -0.499440 -0.250880 18.392381 -9.235645 4.815007 -12.044635 6.982060 -47.580601 14.097060 -19.542296 57.143844 -1.256700 -10.523975 0.972105 -0.136290 0.752750 0.031040 -3.586664 -1.919198 -8.200942 4.549241 -2.434707 11.775693 -3.241845 -1.683898 0.423883 2.502805 1.083242 -5.458064 -0.170405 -4.287572 33.623674 -2.805450 -3.744870 4.881250 -22.200575 0.857240 -0.021871 -50.552961 -8.623001 -3.718387 -22.089333 -56.498470 9.041428 -4.035078 3.083701 0.270100 0.443710 -0.526870 0.169340 17.612042 -1.779042 1.460569 52.481777 0.817783 -6.040077 3.414921 15.069598 -0.721269 2.127130 -1.165786 -0.486480 0.412190 0.359470 -0.139480 
0.282310 16.426500 -1.708660 -2.046129 14.049158 -1.109178 -15.368496 12.485903 2.355333 2.856258 -5.105649 -13.051372 -1.092747 9.222861 44.012773 0.170352 8.172458 1.906254 -0.039320 -0.363940 -0.134350 18.381032 -8.786078 5.318292 -15.276680 6.408211 -51.006376 16.694482 -24.329329 62.918940 -1.815249 -12.064930 0.522120 -0.123460 0.569000 0.017400 -3.523307 -2.435976 -8.825391 4.464976 -3.545781 17.109610 -3.793204 -2.512660 -0.664156 2.683123 0.285091 -6.733211 -2.483429 -3.452278 39.286658 -0.305730 -4.277760 -0.215680 -23.331928 -1.657415 0.574492 -47.869766 -8.199242 -5.059266 -22.013401 -63.128700 9.944576 -3.821693 3.059673 0.455570 0.253200 -0.334240 0.154170 18.391772 1.331739 2.884993 51.393759 -0.265899 -6.850191 2.390584 15.909951 -0.558340 2.141012 -1.045342 -0.429630 0.426000 0.300870 -0.168740 
0.277520 16.338260 -1.771270 -3.269689 14.713374 -3.388784 -15.336803 12.398221 2.360212 4.411356 -5.991205 -12.970526 -1.274688 9.992927 47.461202 0.314031 8.813440 1.644846 0.013790 -0.296270 -0.100510 18.445564 -8.408481 5.659376 -17.104719 5.987340 -53.850175 17.607847 -28.001720 67.991027 -2.218126 -13.261193 0.214789 -0.118350 0.482870 -0.002210 -3.645758 -2.830078 -9.190200 6.068373 -5.066123 21.271919 -5.092332 -3.544014 -1.214197 2.667217 -1.565226 -7.638542 -6.623296 -1.820535 42.503175 2.174150 -4.938790 -3.668570 -24.031846 -3.199560 0.830288 -45.539014 -7.865236 -6.021401 -22.029757 -68.791711 10.739204 -3.703070 3.056351 0.551050 0.142840 -0.243730 0.141680 18.927914 3.838130 4.181006 50.084496 -1.701225 -7.990754 2.411199 18.682846 -0.387961 2.113163 -0.978851 -0.400160 0.445660 0.287020 -0.173790 
0.273640 16.259680 -1.818310 -4.462833 14.780478 -4.969357 -15.301774 12.227805 2.415442 5.812509 -7.033110 -13.695986 -1.703500 10.962268 51.090012 0.500582 9.509724 1.391184 0.043990 -0.245530 -0.112310 18.525722 -8.102267 5.859952 -17.925343 5.748611 -56.277835 17.438603 -30.558765 72.224362 -2.493371 -14.163051 0.021587 -0.115050 0.440990 -0.024450 -3.783984 -3.041603 -9.400108 7.795267 -6.365747 24.044106 -6.601906 -4.295454 -1.648377 2.723269 -3.137713 -8.234313 -10.197244 -0.376020 43.735455 4.052510 -5.487170 -4.798790 -24.954180 -4.264110 0.795449 -42.837961 -7.794214 -6.513723 -21.674650 -73.126474 11.302777 -3.629049 3.093614 0.569030 0.089950 -0.216650 0.149000 19.550055 5.520941 5.370382 49.029605 -4.107340 -9.546934 2.511670 22.945047 -0.242115 2.058574 -0.990550 -0.367720 0.438140 0.269620 -0.160350 
0.268660 16.210980 -1.858020 -5.602670 14.464662 -6.707847 -15.262795 12.131132 2.517302 7.630004 -7.867060 -14.128830 -2.815289 12.292488 53.909652 0.686626 10.170235 1.155472 0.067000 -0.194380 -0.127670 18.574719 -7.997083 5.820941 -17.429850 5.801216 -56.628993 16.159354 -31.467164 75.253243 -2.655776 -14.611881 -0.073924 -0.112000 0.407010 -0.039610 -3.898020 -3.147736 -9.477209 9.284802 -7.475358 26.650180 -8.043979 -4.790714 -1.752521 2.741353 -4.565601 -8.897491 -13.779613 1.128117 44.826401 6.422730 -6.170400 -6.373190 -25.467169 -5.387344 0.756907 -40.701257 -8.029387 -7.134246 -19.331973 -76.134922 10.013241 -3.555271 3.101523 0.587450 0.033480 -0.177340 0.154870 19.918601 7.123741 6.643545 48.195208 -6.932978 -11.410795 3.925761 28.039837 0.149725 2.005096 -1.007087 -0.333640 0.441200 0.257750 -0.136010 
